<svg viewBox="0 0 102.01 109.72" xmlns="http://www.w3.org/2000/svg"><g transform="translate(-588.99 -805.14)"><path d="m608.62 903.84h6.48c-.82 6.55-5.81 11-12.7 11-7.63 0-13.41-5.55-13.41-13.18s5.77-13.18 13.41-13.18c6.89 0 11.88 4.47 12.7 11h-6.48a6 6 0 0 0 -6.26-5.14c-4.13 0-7 3.09-7 7.3s2.87 7.3 7 7.3a6 6 0 0 0 6.26-5.1z" fill="#322c6d"/><path d="m644.26 901.68a13.41 13.41 0 1 1 -13.41-13.18 13.1 13.1 0 0 1 13.41 13.18zm-6.37 0a7 7 0 1 0 -7 7.34 7.1 7.1 0 0 0 7-7.34z" fill="#322c6d"/><path d="m658.27 907h-4.77v7.34h-6.29v-25.34h11.06c6.29 0 10.5 3.43 10.5 8.9a8.47 8.47 0 0 1 -4.28 7.56l6 8.86h-7.34zm-.11-5.66c2.42 0 4.32-1.34 4.32-3.43s-1.9-3.35-4.32-3.35h-4.66v6.78z" fill="#322c6d"/><path d="m678.16 899.11h11.25v5.36h-11.25v4.39h12.84v5.47h-19.14v-25.33h19.14v5.47h-12.84v4.62z" fill="#322c6d"/><path d="m677.32 810.38a2.32 2.32 0 0 0 -1.63-1.49c-19.92-5-49.46-5-69.38 0a2.33 2.33 0 0 0 -1.64 1.51c-3.19 9.38-3.2 39.85 0 49a2.32 2.32 0 0 0 1.63 1.49 119.85 119.85 0 0 0 15.7 2.69v-7.27a3 3 0 0 1 3-3 3 3 0 0 1 3 3v7.82q1.86.13 3.73.23a9.42 9.42 0 0 1 -.14-1.58l-.29-4.31a3 3 0 1 1 6 0v4.31a3.36 3.36 0 0 0 .53 1.79q2.91 0 5.83 0a3.37 3.37 0 0 0 .53-1.79 3 3 0 0 1 6 0 9.41 9.41 0 0 1 -.14 1.58c4.43-.22 8.77-.62 12.93-1.17v-16.19a22.6 22.6 0 0 0 -3.16-11.49 2.9 2.9 0 0 1 1-4 2.86 2.86 0 0 1 4 1 29.79 29.79 0 0 1 4.33 14.49v15.27c2.27-.41 4.46-.88 6.54-1.4a2.32 2.32 0 0 0 1.63-1.49c3.18-9.16 3.18-39.87 0-49zm-58.46 36.62v11a2.94 2.94 0 0 1 -3 3 3 3 0 0 1 -3-3v-11a28.05 28.05 0 0 1 42.52-24.14 2.93 2.93 0 0 1 -3 5 22.56 22.56 0 0 0 -11.38-3.15 22.16 22.16 0 0 0 -22.14 22.29zm31.46 5.89a3 3 0 0 1 -3 3 2.72 2.72 0 0 1 -2.73-3v-4.31a3.45 3.45 0 0 0 -6.9 0 3 3 0 0 1 -6 0 9.34 9.34 0 1 1 18.67 0v4.31zm9.77-5.74v10.85a3 3 0 1 1 -6 0v-10.88a12.93 12.93 0 1 0 -25.86 0 3 3 0 0 1 -6 0 18.89 18.89 0 0 1 18.77-18.82 19.32 19.32 0 0 1 19.1 18.82z" fill="#322c6d"/><g fill="#919fa2"><path d="m592.13 878.63c.2 1.26 1.11 1.75 2.47 1.75 1.18 0 2-.39 2-1a1.12 1.12 0 0 0 -1.16-1l-2.54-.44c-1.8-.32-3.48-1.31-3.48-3.48 0-2.47 2.07-3.92 5.11-3.92 2 0 5.06.69 5.3 4h-3.13c-.07-1.06-1.06-1.48-2.17-1.48s-1.75.47-1.75 1 .32.91 1.41 1.11l2.15.35c1.92.35 3.58 1.23 3.58 3.48 0 2.64-2.29 4-5.33 4-2.74 0-5.33-1.11-5.58-4.47z"/><path d="m613.86 876.8a6.32 6.32 0 1 1 -6.29-6.17 6 6 0 0 1 6.29 6.17zm-3.38 0a2.94 2.94 0 1 0 -5.87 0 2.95 2.95 0 1 0 5.87 0z"/><path d="m619 872.22a5.79 5.79 0 0 1 4.14-1.53v3.26a5.51 5.51 0 0 0 -4.14 1.7v7.06h-3.43v-11.83h3.43v1.33z"/><path d="m636.68 877.67h-8.68a2.85 2.85 0 0 0 3.06 2.47 2.17 2.17 0 0 0 2-.89h3.58a5.6 5.6 0 0 1 -5.65 3.82 6.1 6.1 0 0 1 -6.37-6.27 6 6 0 0 1 6.27-6.29 5.71 5.71 0 0 1 5.9 6 7 7 0 0 1 -.11 1.16zm-8.68-2h5.35a2.35 2.35 0 0 0 -2.47-2.29 2.77 2.77 0 0 0 -2.88 2.26z"/><path d="m651 876.21v6.49h-3.43v-6.19c0-1.87-.94-2.89-2.54-2.89a3.53 3.53 0 0 0 -2.59 1.48v7.6h-3.44v-11.82h3.43v.84a5.24 5.24 0 0 1 3.38-1.21c3.13 0 5.19 2.25 5.19 5.7z"/><path d="m655.63 878.63c.2 1.26 1.11 1.75 2.47 1.75 1.18 0 2-.39 2-1a1.12 1.12 0 0 0 -1.16-1l-2.54-.44c-1.8-.32-3.48-1.31-3.48-3.48 0-2.47 2.07-3.92 5.11-3.92 2 0 5.06.69 5.3 4h-3.13c-.07-1.06-1.06-1.48-2.17-1.48s-1.75.47-1.75 1 .32.91 1.41 1.11l2.15.35c1.92.35 3.58 1.23 3.58 3.48 0 2.64-2.29 4-5.33 4-2.74 0-5.33-1.11-5.58-4.47z"/><path d="m677.36 876.8a6.32 6.32 0 1 1 -6.29-6.17 6 6 0 0 1 6.29 6.17zm-3.38 0a2.94 2.94 0 1 0 -5.87 0 2.95 2.95 0 1 0 5.89 0z"/><path d="m691 876.21v6.49h-3.43v-6.19c0-1.87-.94-2.89-2.54-2.89a3.53 3.53 0 0 0 -2.59 1.48v7.6h-3.44v-11.82h3.43v.84a5.24 5.24 0 0 1 3.38-1.21c3.13 0 5.19 2.25 5.19 5.7z"/></g></g></svg>