<svg enable-background="new 0 0 216 43.1" viewBox="0 0 216 43.1" xmlns="http://www.w3.org/2000/svg"><g fill="#332d6d"><path d="m45.9 22.6c.3 2.2 2 3.1 4.4 3.1 2.1 0 3.5-.7 3.5-1.8 0-.8-.7-1.5-2.1-1.7l-4.5-.8c-3.2-.6-6.2-2.3-6.2-6.2 0-4.4 3.7-7 9.1-7 3.6 0 9 1.2 9.4 7.1h-5.6c-.1-1.9-1.9-2.6-3.9-2.6-2.1 0-3.1.8-3.1 1.8 0 .8.6 1.6 2.5 2l3.8.6c3.4.6 6.4 2.2 6.4 6.2 0 4.7-4.1 7.1-9.5 7.1-4.9 0-9.5-2-9.9-7.9z"/><path d="m78 19.4c0-3.1-2-5.5-5.2-5.5s-5.3 2.4-5.3 5.5c0 3.2 2.1 5.7 5.3 5.7s5.2-2.6 5.2-5.7m6 0c0 6.4-4.7 11.1-11.2 11.1s-11.3-4.7-11.3-11.1 4.8-10.9 11.3-10.9c6.5-.1 11.2 4.5 11.2 10.9"/><path d="m92.5 11.2c1.9-1.8 4.2-2.7 7.4-2.7v5.8c-3.3.1-5.6 1.1-7.4 3v12.5h-6.1v-21h6.1z"/><path d="m107 17.3h9.5c-.4-2.6-1.9-4.1-4.4-4.1-2.9 0-4.5 1.7-5.1 4.1m15.4 3.6h-15.4c.5 2.5 2.1 4.4 5.4 4.4 1.7 0 2.9-.5 3.5-1.6h6.4c-1.1 4-5.1 6.8-10 6.8-6.7 0-11.3-4.9-11.3-11.1 0-6.5 4.5-11.2 11.1-11.2 6 0 10.5 4.2 10.5 10.7 0 .9-.1 1.4-.2 2"/><path d="m146.7 18.3v11.5h-6.1v-11c0-3.3-1.7-5.1-4.5-5.1-1.5 0-3.2.9-4.6 2.6v13.5h-6.1v-21h6.1v1.5c1.7-1.4 3.6-2.1 6-2.1 5.5 0 9.2 4 9.2 10.1"/><path d="m154.2 22.6c.3 2.2 2 3.1 4.4 3.1 2.1 0 3.5-.7 3.5-1.8 0-.8-.7-1.5-2.1-1.7l-4.5-.8c-3.2-.6-6.2-2.3-6.2-6.2 0-4.4 3.7-7 9.1-7 3.6 0 9 1.2 9.4 7.1h-5.6c-.1-1.9-1.9-2.6-3.9-2.6-2.1 0-3.1.8-3.1 1.8 0 .8.6 1.6 2.5 2l3.8.6c3.4.6 6.4 2.2 6.4 6.2 0 4.7-4.1 7.1-9.5 7.1-4.9 0-9.5-2-9.9-7.9z"/><path d="m186.3 19.4c0-3.1-2-5.5-5.2-5.5s-5.3 2.4-5.3 5.5c0 3.2 2.1 5.7 5.3 5.7s5.2-2.6 5.2-5.7m6 0c0 6.4-4.7 11.1-11.2 11.1s-11.3-4.7-11.3-11.1 4.8-10.9 11.3-10.9c6.5-.1 11.2 4.5 11.2 10.9"/><path d="m216 18.3v11.5h-6.1v-11c0-3.3-1.7-5.1-4.5-5.1-1.5 0-3.2.9-4.6 2.6v13.5h-6.1v-21h6.1v1.5c1.7-1.4 3.6-2.1 6-2.1 5.5 0 9.2 4 9.2 10.1"/></g><path d="m50.3 43.1h-1.4v-6.2l-3.1 4.6h-.9l-3.2-4.6v6.2h-1.4v-9h1l4 5.9 3.9-5.9h1.1z" fill="#92a0a3"/><path d="m55.8 38.1h5.2v1.2h-5.2v2.7h5.8v1.1h-7.2v-9h7.2v1.2h-5.8z" fill="#92a0a3"/><path d="m68.9 42c2.2 0 3.9-1.4 3.9-3.4 0-1.9-1.6-3.3-3.9-3.3h-2.2v6.7zm0-7.9c3.1 0 5.3 1.9 5.3 4.5 0 2.7-2.2 4.6-5.3 4.6h-3.6v-9h3.6z" fill="#92a0a3"/><path d="m77.6 34.1h1.4v9h-1.4z" fill="#92a0a3"/><path d="m87.4 35.6-1.9 4.1h3.9zm-2.5 5.2-1.1 2.3h-1.5l4.5-9.1h1.2l4.5 9.1h-1.5l-1.1-2.3z" fill="#92a0a3"/><path d="m17.4 5.1c4.9 0 9.7.4 13.8 1.3-5.6-3.9-12.9-6.1-18-6.3-.2 0-.4.2-.5.5-.3 1.1-.5 2.8-.6 4.8 1.7-.3 3.5-.3 5.3-.3" fill="#332d6d"/><path d="m33.6 9.6c-.1 0-.1 0 0 0-6.1.3-15.1 1.9-21.1 6.7-.2.2-.4.5-.5.9-1 4.7-1 21.8 0 25.5.1.3.3.5.5.5 6.1-.3 19-9.6 21.1-12.2.2-.2.4-.5.5-.9 1-4.5 1-16.3 0-20-.1-.3-.3-.5-.5-.5m-2 3c.5 4.4.4 12.9-.3 16.6-.7.9-4 3.6-8.3 6.3-3.3 2.1-6.3 3.6-8.5 4.3-.5-5.3-.5-17.4.3-21.7 5-3.8 12.4-5.1 16.8-5.5" fill="#332d6d"/><path d="m9.8 30.3c0-4.7.2-10.7.8-13.4.1-.7.5-1.3 1-1.7 2.9-2.3 6.6-4.1 11.1-5.3 4-1.1 7.8-1.5 10.4-1.7h-.1c-9-2.3-22.2-2.3-31.2 0-.3 0-.6.3-.7.6-1.4 4.2-1.4 18 0 22.1.1.3.4.6.7.7 2.4.6 5.1 1.1 8 1.3 0-.8 0-1.8 0-2.6" fill="#231f54"/></svg>