<svg viewBox="0 0 134.33 109.72" xmlns="http://www.w3.org/2000/svg"><g transform="translate(-268.2 -805.14)"><g fill="#322c6d"><path d="m274.5 899.1h11.25v5.36h-11.25v4.4h12.85v5.48h-19.15v-25.34h19.15v5.48h-12.85z"/><path d="m313.28 914.34h-4.84l-12.14-13.89v13.89h-6.3v-25.34h4.81l12.19 14.27v-14.27h6.26v25.33z"/><path d="m342.67 914.34h-4.67l-.26-3.05a9.85 9.85 0 0 1 -8 3.58c-7.93 0-13.48-5.66-13.48-12.93 0-7.9 5.81-13.45 13.52-13.45 6.22 0 11.58 3.5 12.66 9.54h-6.63c-1.08-2.94-3.61-3.76-5.89-3.76-4.36 0-7.3 3.05-7.3 7.52a7 7 0 0 0 7.34 7.23 7 7 0 0 0 6.44-3.87l-7.26-.07v-5h13.56v14.23z"/><path d="m353 914.34h-6.3v-25.34h6.3v25.33z"/><path d="m379.85 914.34h-4.85l-12.14-13.89v13.89h-6.3v-25.34h4.81l12.22 14.27v-14.27h6.26v25.33z"/><path d="m389.69 899.1h11.25v5.36h-11.25v4.4h12.85v5.48h-19.15v-25.34h19.15v5.48h-12.85z"/><path d="m342.62 856.26.39.17a8.74 8.74 0 0 0 7.2-.22l.38-.2a8.74 8.74 0 0 0 4.32-5.76l.08-.42a8.74 8.74 0 0 0 -1.82-7l-.27-.32a8.74 8.74 0 0 0 -6.58-2.93h-.42a8.74 8.74 0 0 0 -6.39 3.32l-.25.34a8.74 8.74 0 0 0 -1.39 7.07l.11.41a8.74 8.74 0 0 0 4.64 5.54z"/><path d="m371.71 810.38a2.32 2.32 0 0 0 -1.63-1.49c-19.92-5-49.47-5-69.4 0a2.33 2.33 0 0 0 -1.64 1.51c-3.19 9.38-3.2 39.86 0 49a2.32 2.32 0 0 0 1.63 1.49c1 .25 2 .48 3 .7l4.07-5.36-.46-4.78-5.27-4.7 2.27-6.17 7.06-.17 3.44-3.34.39-7.05 6.24-2.08 4.42 5.28-1.74 2.32-1.19 1.59 1 1.69 2.24 3.63a9.59 9.59 0 0 0 -3 .42l-.44.15a9.6 9.6 0 0 0 -5.68 5.5l-.16.44a9.6 9.6 0 0 0 .76 7.87l.24.4a9.6 9.6 0 0 0 6.63 4.31l.46.06a9.6 9.6 0 0 0 5.33-1l1.39 1.64-.1 2.34h2.91l.14-3.4-2.88-3.4-6.51-.79-1.54-5.91 5.3-3.87.86-4.38-3.44-5.59 3.66-4.89 6.33 1.73 4-2.05 2.22-6.17 6.11-.19 2.6 6 4.07 1.81 6.21-2.11 4 4.66-3.09 5.79 1.12 4.31 5.52 3.54-1.18 6-6.45 1.19-2.67 3.57.26 2.52a111.1 111.1 0 0 0 11-2.12 2.32 2.32 0 0 0 1.63-1.49c3.14-9.11 3.14-39.82-.04-48.96z"/></g><path d="m287.49 878.64c.2 1.26 1.11 1.75 2.47 1.75 1.18 0 2-.39 2-1a1.12 1.12 0 0 0 -1.16-1l-2.54-.44c-1.8-.32-3.48-1.31-3.48-3.48 0-2.47 2.07-3.92 5.11-3.92 2 0 5.06.69 5.3 4h-3.13c-.07-1.06-1.06-1.48-2.17-1.48s-1.75.47-1.75 1 .32.91 1.41 1.11l2.15.35c1.92.35 3.58 1.23 3.58 3.48 0 2.64-2.29 4-5.33 4-2.74 0-5.33-1.11-5.58-4.47z" fill="#919fa2"/><path d="m309.23 876.82a6.32 6.32 0 1 1 -6.29-6.17 6 6 0 0 1 6.29 6.17zm-3.38 0a2.94 2.94 0 1 0 -5.87 0 2.95 2.95 0 1 0 5.87 0z" fill="#919fa2"/><path d="m314.38 872.23a5.79 5.79 0 0 1 4.15-1.53v3.3a5.51 5.51 0 0 0 -4.15 1.7v7.06h-3.38v-11.87h3.43v1.33z" fill="#919fa2"/><path d="m332.05 877.68h-8.71a2.85 2.85 0 0 0 3.06 2.47 2.17 2.17 0 0 0 2-.89h3.6a5.6 5.6 0 0 1 -5.65 3.82 6.11 6.11 0 0 1 -6.37-6.27 6 6 0 0 1 6.27-6.29 5.71 5.71 0 0 1 5.9 6 7 7 0 0 1 -.1 1.16zm-8.69-2h5.35a2.35 2.35 0 0 0 -2.47-2.29 2.77 2.77 0 0 0 -2.87 2.27z" fill="#919fa2"/><path d="m346.39 876.22v6.49h-3.39v-6.19c0-1.88-.94-2.89-2.54-2.89a3.53 3.53 0 0 0 -2.59 1.48v7.6h-3.47v-11.82h3.43v.84a5.24 5.24 0 0 1 3.38-1.21c3.11 0 5.18 2.25 5.18 5.7z" fill="#919fa2"/><path d="m351 878.64c.2 1.26 1.11 1.75 2.47 1.75 1.18 0 2-.39 2-1a1.12 1.12 0 0 0 -1.16-1l-2.54-.44c-1.8-.32-3.48-1.31-3.48-3.48 0-2.47 2.07-3.92 5.11-3.92 2 0 5.06.69 5.3 4h-3.13c-.07-1.06-1.06-1.48-2.17-1.48s-1.75.47-1.75 1 .32.91 1.41 1.11l2.15.35c1.92.35 3.58 1.23 3.58 3.48 0 2.64-2.29 4-5.33 4-2.74 0-5.33-1.11-5.58-4.47z" fill="#919fa2"/><path d="m372.74 876.82a6.32 6.32 0 1 1 -6.29-6.17 6 6 0 0 1 6.29 6.17zm-3.38 0a2.94 2.94 0 1 0 -5.87 0 2.95 2.95 0 1 0 5.87 0z" fill="#919fa2"/><path d="m386.39 876.22v6.49h-3.39v-6.19c0-1.88-.94-2.89-2.54-2.89a3.53 3.53 0 0 0 -2.59 1.48v7.6h-3.47v-11.82h3.43v.84a5.24 5.24 0 0 1 3.38-1.21c3.11 0 5.18 2.25 5.18 5.7z" fill="#919fa2"/></g></svg>