<svg viewBox="0 0 219.3 109.72" xmlns="http://www.w3.org/2000/svg"><g transform="translate(-682.67 -1029.03)"><g fill="#322c6d"><path d="m704.56 1120.72h-6.33a3.82 3.82 0 0 0 -4.17-3.43c-2.23 0-3.69 1-3.69 2.61 0 1.45 1 2.09 3.05 2.49l3.54.82c4.65 1 7.63 2.9 7.63 7.26 0 5.06-4.17 8.23-10.5 8.23-5.7 0-10.84-2.76-11.43-9h6.34c.41 2.23 2.31 3.69 5.29 3.69 2.23 0 3.57-.89 3.57-2.31 0-.89-.48-1.82-2.68-2.23l-4.17-.89c-5-1.08-7.34-3.35-7.34-7.37 0-5.06 4.1-8.27 10.05-8.27 4.1-.01 10.21 1.59 10.84 8.4z"/><path d="m716.92 1112.87c6.63 0 10.72 3.57 10.72 9.27 0 5.92-4.32 9.61-11.21 9.61h-3.43v6.44h-6.29v-25.32h10.2zm-.11 13.37c2.76 0 4.58-1.6 4.58-4.1 0-2.27-1.82-3.72-4.58-3.72h-3.81v7.82h3.8z"/><path d="m732.16 1133.83-1.68 4.36h-6.7l10.76-25.47h6l10.72 25.47h-6.7l-1.71-4.36zm5.36-13.78-3.28 8.42h6.55z"/><path d="m763.36 1130.85h-4.77v7.34h-6.29v-25.32h11.06c6.29 0 10.5 3.43 10.5 8.9a8.47 8.47 0 0 1 -4.28 7.56l6 8.86h-7.38zm-.11-5.66c2.42 0 4.32-1.34 4.32-3.43s-1.9-3.35-4.32-3.35h-4.65v6.78z"/><path d="m782.5 1133v5.14h-6.29v-25.32h6.29v11.51l10.09-11.51h7.41l-9.6 11.18 10.46 14.22h-7.67l-7.07-9.31z"/><path d="m819.74 1112.87c6.63 0 10.72 3.57 10.72 9.27 0 5.92-4.32 9.61-11.21 9.61h-3.43v6.44h-6.29v-25.32h10.2zm-.11 13.37c2.76 0 4.58-1.6 4.58-4.1 0-2.27-1.82-3.72-4.58-3.72h-3.8v7.82z"/><path d="m850.2 1138.19h-18.8v-25.32h6.29v19.77h12.51z"/><path d="m874 1126.38c0 7.86-4.54 12.36-11.8 12.36s-11.77-4.51-11.77-12.36v-13.52h6.33v13.63c0 3.87 2.12 6.37 5.44 6.37s5.47-2.49 5.47-6.37v-13.63h6.33z"/><path d="m902 1138.19h-4.69l-.26-3.05a9.85 9.85 0 0 1 -8 3.57c-7.93 0-13.48-5.66-13.48-12.92 0-7.89 5.81-13.44 13.52-13.44 6.22 0 11.58 3.5 12.66 9.53h-6.63c-1.08-2.94-3.61-3.76-5.88-3.76-4.36 0-7.3 3.05-7.3 7.52a7 7 0 0 0 7.34 7.22 7 7 0 0 0 6.44-3.87l-7.26-.07v-5h13.54v14.22z"/><path d="m805.74 1059.48h-26.85a1.36 1.36 0 0 0 -1.36 1.36v3.29a1.36 1.36 0 0 0 .4 1l3 3a2.53 2.53 0 0 0 1.79.74h19.13a2.53 2.53 0 0 0 1.79-.74l3-3a1.36 1.36 0 0 0 .4-1v-3.29a1.36 1.36 0 0 0 -1.3-1.36zm-3.74 5.52h-19.33a.79.79 0 0 1 0-1.57h19.33a.79.79 0 1 1 0 1.57z"/><path d="m828.64 1034.26a2.32 2.32 0 0 0 -1.63-1.49c-19.92-5-49.45-5-69.37 0a2.33 2.33 0 0 0 -1.64 1.51c-3.19 9.38-3.19 39.84 0 49a2.32 2.32 0 0 0 1.63 1.49c19.92 5 49.47 5 69.39 0a2.32 2.32 0 0 0 1.63-1.49c3.17-9.18 3.17-39.88-.01-49.02zm-12.44 37.54a1.63 1.63 0 0 1 -1.41 1.49 168.37 168.37 0 0 1 -45 0 1.63 1.63 0 0 1 -1.41-1.49 101.61 101.61 0 0 1 0-15.24 1.63 1.63 0 0 1 1.41-1.5 168.31 168.31 0 0 1 45 0 1.63 1.63 0 0 1 1.41 1.5 101.62 101.62 0 0 1 0 15.24z"/></g><path d="m744.45 1102.5c.2 1.26 1.11 1.75 2.47 1.75 1.18 0 2-.39 2-1a1.12 1.12 0 0 0 -1.16-1l-2.54-.44c-1.8-.32-3.48-1.31-3.48-3.48 0-2.47 2.07-3.92 5.11-3.92 2 0 5.06.69 5.3 4h-3.13c-.07-1.06-1.06-1.48-2.17-1.48s-1.75.47-1.75 1 .32.91 1.41 1.11l2.15.35c1.92.35 3.58 1.23 3.58 3.48 0 2.64-2.29 4-5.33 4-2.74 0-5.33-1.11-5.57-4.46z" fill="#919fa2"/><path d="m766.18 1100.68a6.32 6.32 0 1 1 -6.29-6.17 6 6 0 0 1 6.29 6.17zm-3.38 0a2.94 2.94 0 1 0 -5.87 0 2.95 2.95 0 1 0 5.87 0z" fill="#919fa2"/><path d="m771.34 1096.09a5.79 5.79 0 0 1 4.14-1.53v3.26a5.51 5.51 0 0 0 -4.14 1.7v7.05h-3.43v-11.81h3.43z" fill="#919fa2"/><path d="m789 1101.54h-8.71a2.85 2.85 0 0 0 3.06 2.47 2.17 2.17 0 0 0 2-.89h3.58a5.6 5.6 0 0 1 -5.65 3.82 6.1 6.1 0 0 1 -6.36-6.26 6 6 0 0 1 6.26-6.29 5.71 5.71 0 0 1 5.89 6 7 7 0 0 1 -.07 1.15zm-8.68-2h5.35a2.35 2.35 0 0 0 -2.47-2.29 2.77 2.77 0 0 0 -2.89 2.27z" fill="#919fa2"/><path d="m803.33 1100.09v6.49h-3.43v-6.19c0-1.87-.94-2.89-2.54-2.89a3.53 3.53 0 0 0 -2.59 1.48v7.6h-3.43v-11.81h3.43v.84a5.24 5.24 0 0 1 3.38-1.21c3.11-.01 5.18 2.23 5.18 5.69z" fill="#919fa2"/><path d="m807.94 1102.5c.2 1.26 1.11 1.75 2.47 1.75 1.18 0 2-.39 2-1a1.12 1.12 0 0 0 -1.16-1l-2.54-.44c-1.8-.32-3.48-1.31-3.48-3.48 0-2.47 2.07-3.92 5.11-3.92 2 0 5.06.69 5.3 4h-3.13c-.07-1.06-1.06-1.48-2.17-1.48s-1.75.47-1.75 1 .32.91 1.41 1.11l2.15.35c1.92.35 3.58 1.23 3.58 3.48 0 2.64-2.29 4-5.33 4-2.74 0-5.33-1.11-5.57-4.46z" fill="#919fa2"/><path d="m829.67 1100.68a6.32 6.32 0 1 1 -6.29-6.17 6 6 0 0 1 6.29 6.17zm-3.38 0a2.94 2.94 0 1 0 -5.87 0 2.95 2.95 0 1 0 5.87 0z" fill="#919fa2"/><path d="m843.31 1100.09v6.49h-3.43v-6.19c0-1.87-.94-2.89-2.54-2.89a3.53 3.53 0 0 0 -2.59 1.48v7.6h-3.43v-11.81h3.43v.84a5.24 5.24 0 0 1 3.38-1.21c3.11-.01 5.18 2.23 5.18 5.69z" fill="#919fa2"/></g></svg>