<svg height="334" viewBox="0 0 804 334" width="804" xmlns="http://www.w3.org/2000/svg"><path d="m0 0h402v167h-402z" fill="#f4f4f4"/><path d="m0 0h402v3.23h-402z" fill="#dd5c36"/><path d="m134 114.66h-12.65c-.67-3.8-3-6.85-8.35-6.85-4.47 0-7.38 1.94-7.38 5.21 0 2.91 2.09 4.17 6.11 5l7.08 1.64c9.32 2 15.28 5.81 15.28 14.53 0 10.13-8.35 16.46-21 16.46-11.41 0-21.69-5.51-22.89-18h12.67c.82 4.47 4.62 7.37 10.59 7.37 4.47 0 7.16-1.79 7.16-4.62 0-1.79-1-3.65-5.37-4.47l-8.35-1.79c-10-2.16-14.69-6.7-14.69-14.75 0-10.13 8.2-16.54 20.13-16.54 8.19-.02 20.41 3.15 21.66 16.81z" fill="#dd5c36" transform="translate(-10.85 -29.3)"/><path d="m159.37 98.94c13.27 0 21.47 7.15 21.47 18.55 0 11.84-8.65 19.22-22.44 19.22h-6.86v12.89h-12.6v-50.66zm-.22 26.74c5.52 0 9.17-3.2 9.17-8.19 0-4.54-3.65-7.45-9.17-7.45h-7.6v15.64z" fill="#dd5c36" transform="translate(-10.85 -29.3)"/><path d="m192.17 140.88-3.35 8.72h-13.42l21.55-51h12.05l21.47 51h-13.4l-3.43-8.72zm10.74-27.56-6.56 16.83h13.12z" fill="#dd5c36" transform="translate(-10.85 -29.3)"/><path d="m256.06 134.92h-9.54v14.68h-12.6v-50.66h22.14c12.6 0 21 6.85 21 17.8a16.94 16.94 0 0 1 -8.57 15.12l11.93 17.73h-14.67zm-.22-11.32c4.85 0 8.65-2.68 8.65-6.85s-3.8-6.7-8.65-6.7h-9.32v13.55z" fill="#dd5c36" transform="translate(-10.85 -29.3)"/><path d="m296.76 139.32v10.28h-12.6v-50.66h12.6v23l20.2-23h14.91l-19.31 22.2 20.95 28.45h-15.35l-14.16-18.59z" fill="#dd5c36" transform="translate(-10.85 -29.3)"/><path d="m94.79 86.83c.29 1.84 1.62 2.56 3.61 2.56 1.73 0 2.92-.58 2.92-1.48 0-.65-.54-1.23-1.7-1.41l-3.72-.65c-2.64-.47-5.09-1.91-5.09-5.09 0-3.61 3-5.73 7.47-5.73 3 0 7.4 1 7.76 5.88h-4.58c-.11-1.55-1.55-2.16-3.18-2.16s-2.56.69-2.56 1.48.47 1.33 2.06 1.62l3.14.51c2.82.51 5.23 1.8 5.23 5.09 0 3.86-3.36 5.84-7.8 5.84-4 0-7.8-1.62-8.16-6.53z" fill="#919fa2" transform="translate(-10.85 -29.3)"/><path d="m126.59 84.16a9.24 9.24 0 0 1 -18.48 0c0-5.23 3.93-9 9.28-9a8.83 8.83 0 0 1 9.2 9zm-4.95 0a4.3 4.3 0 1 0 -8.59 0c0 2.6 1.7 4.69 4.33 4.69s4.27-2.09 4.27-4.69z" fill="#919fa2" transform="translate(-10.85 -29.3)"/><path d="m134.14 77.45a8.48 8.48 0 0 1 6.06-2.24v4.79a8.06 8.06 0 0 0 -6.06 2.49v10.29h-5v-17.27h5v1.95z" fill="#919fa2" transform="translate(-10.85 -29.3)"/><path d="m160 85.43h-12.76a4.17 4.17 0 0 0 4.48 3.57 3.17 3.17 0 0 0 2.92-1.3h5.23c-.94 3.32-4.19 5.59-8.27 5.59a8.93 8.93 0 0 1 -9.31-9.16 8.8 8.8 0 0 1 9.17-9.2c4.95 0 8.63 3.5 8.63 8.84a10.16 10.16 0 0 1 -.09 1.66zm-12.71-3h7.83a3.44 3.44 0 0 0 -3.61-3.35 4.05 4.05 0 0 0 -4.23 3.39z" fill="#919fa2" transform="translate(-10.85 -29.3)"/><path d="m181 83.3v9.49h-5v-9.06c0-2.74-1.37-4.22-3.72-4.22a5.17 5.17 0 0 0 -3.79 2.16v11.11h-5v-17.27h5v1.23a7.67 7.67 0 0 1 4.89-1.74c4.55 0 7.62 3.25 7.62 8.3z" fill="#919fa2" transform="translate(-10.85 -29.3)"/><path d="m187.71 86.83c.29 1.84 1.62 2.56 3.61 2.56 1.73 0 2.92-.58 2.92-1.48 0-.65-.54-1.23-1.7-1.41l-3.72-.65c-2.64-.47-5.09-1.91-5.09-5.09 0-3.61 3-5.73 7.47-5.73 3 0 7.4 1 7.76 5.88h-4.58c-.11-1.55-1.55-2.16-3.18-2.16s-2.56.69-2.56 1.48.47 1.33 2.06 1.62l3.14.51c2.82.51 5.23 1.8 5.23 5.09 0 3.86-3.36 5.84-7.8 5.84-4 0-7.8-1.62-8.16-6.53z" fill="#919fa2" transform="translate(-10.85 -29.3)"/><path d="m219.52 84.16a9.24 9.24 0 0 1 -18.48 0c0-5.23 3.93-9 9.28-9a8.83 8.83 0 0 1 9.2 9zm-4.95 0a4.3 4.3 0 1 0 -8.59 0c0 2.6 1.7 4.69 4.33 4.69s4.26-2.09 4.26-4.69z" fill="#919fa2" transform="translate(-10.85 -29.3)"/><path d="m239.48 83.3v9.49h-5v-9.06c0-2.74-1.37-4.22-3.72-4.22a5.17 5.17 0 0 0 -3.76 2.16v11.11h-5v-17.27h5v1.23a7.67 7.67 0 0 1 4.9-1.74c4.55 0 7.58 3.25 7.58 8.3z" fill="#919fa2" transform="translate(-10.85 -29.3)"/><path d="m402 0h402v167h-402z" fill="#f4f4f4"/><path d="m402 0h402v3.23h-402z" fill="#34c3ed"/><g transform="translate(-10.85 -29.3)"><path d="m454.28 81.49c.29 1.84 1.62 2.56 3.61 2.56 1.73 0 2.92-.58 2.92-1.48 0-.65-.54-1.23-1.7-1.41l-3.72-.65c-2.63-.47-5.09-1.91-5.09-5.08 0-3.6 3-5.73 7.47-5.73 3 0 7.39 1 7.75 5.87h-4.58c-.11-1.55-1.55-2.16-3.17-2.16s-2.56.68-2.56 1.48.47 1.33 2.06 1.62l3.14.5c2.81.5 5.23 1.8 5.23 5.08 0 3.86-3.35 5.84-7.79 5.84-4 0-7.79-1.62-8.15-6.52z" fill="#919fa2"/><path d="m486.06 78.83a9.23 9.23 0 0 1 -18.47 0c0-5.23 3.93-9 9.27-9a8.82 8.82 0 0 1 9.2 9zm-4.94 0a4.3 4.3 0 1 0 -8.58 0c0 2.59 1.7 4.68 4.33 4.68s4.25-2.09 4.25-4.68z" fill="#919fa2"/><path d="m493.6 72.13a8.47 8.47 0 0 1 6.06-2.23v4.76a8.06 8.06 0 0 0 -6.06 2.49v10.29h-5v-17.26h5z" fill="#919fa2"/><path d="m519.43 80.09h-12.74a4.17 4.17 0 0 0 4.47 3.6 3.17 3.17 0 0 0 2.92-1.3h5.23c-.94 3.32-4.18 5.59-8.26 5.59a8.92 8.92 0 0 1 -9.31-9.15 8.79 8.79 0 0 1 9.16-9.19c4.94 0 8.62 3.5 8.62 8.83a10.15 10.15 0 0 1 -.09 1.62zm-12.7-3h7.83a3.44 3.44 0 0 0 -3.61-3.35 4 4 0 0 0 -4.22 3.39z" fill="#919fa2"/><path d="m540.38 78v9.48h-5v-9c0-2.74-1.37-4.22-3.72-4.22a5.17 5.17 0 0 0 -3.79 2.16v11.1h-5v-17.34h5v1.22a7.67 7.67 0 0 1 4.94-1.77c4.54.01 7.57 3.29 7.57 8.37z" fill="#919fa2"/><path d="m547.13 81.49c.29 1.84 1.62 2.56 3.61 2.56 1.73 0 2.92-.58 2.92-1.48 0-.65-.54-1.23-1.7-1.41l-3.72-.65c-2.63-.47-5.09-1.91-5.09-5.08 0-3.6 3-5.73 7.47-5.73 3 0 7.39 1 7.75 5.87h-4.58c-.11-1.55-1.55-2.16-3.17-2.16s-2.56.68-2.56 1.48.47 1.33 2.06 1.62l3.14.5c2.81.5 5.23 1.8 5.23 5.08 0 3.86-3.35 5.84-7.79 5.84-4 0-7.79-1.62-8.15-6.52z" fill="#919fa2"/><path d="m578.91 78.83a9.23 9.23 0 0 1 -18.47 0c0-5.23 3.93-9 9.27-9a8.82 8.82 0 0 1 9.2 9zm-4.94 0a4.3 4.3 0 1 0 -8.58 0c0 2.59 1.7 4.68 4.33 4.68s4.28-2.09 4.28-4.68z" fill="#919fa2"/><path d="m598.85 78v9.48h-5v-9c0-2.74-1.37-4.22-3.72-4.22a5.17 5.17 0 0 0 -3.79 2.16v11.1h-5v-17.34h5v1.22a7.67 7.67 0 0 1 4.94-1.77c4.54.01 7.57 3.29 7.57 8.37z" fill="#919fa2"/><path d="m493.48 109.3h-12.66c-.67-3.8-3-6.85-8.34-6.85-4.47 0-7.37 1.94-7.37 5.21 0 2.9 2.09 4.17 6.11 5l7.08 1.64c9.31 2 15.27 5.81 15.27 14.51 0 10.12-8.34 16.45-21 16.45-11.4 0-21.68-5.51-22.87-18h12.66c.82 4.47 4.62 7.37 10.58 7.37 4.47 0 7.15-1.79 7.15-4.61 0-1.79-1-3.65-5.36-4.47l-8.34-1.79c-10-2.16-14.67-6.7-14.67-14.74 0-10.12 8.19-16.52 20.11-16.52 8.17-.02 20.39 3.18 21.65 16.8z" fill="#34c3ed"/><path d="m541.68 138.47 8 9.38-8.9 8.15-10-11.68a26.36 26.36 0 0 1 -7.37 1c-15.27 0-26.82-11.61-26.82-26.35s11.55-26.35 26.82-26.35 26.82 11.61 26.82 26.35a26.32 26.32 0 0 1 -8.55 19.5zm-18.25-4.91c8.19 0 14.08-6.7 14.08-14.66s-5.88-14.66-14.08-14.66-14.08 6.7-14.08 14.66 5.88 14.66 14.08 14.66z" fill="#34c3ed"/><path d="m601.12 120.61c0 15.7-9.09 24.71-23.61 24.71s-23.54-9-23.54-24.71v-27h12.66v27.24c0 7.74 4.25 12.73 10.88 12.73s10.95-5 10.95-12.73v-27.25h12.66v27z" fill="#34c3ed"/><path d="m619.14 113.77h22.5v10.72h-22.5v8.78h25.7v10.94h-38.29v-50.61h38.29v10.94h-25.7z" fill="#34c3ed"/><path d="m661.82 113.77h22.5v10.72h-22.5v8.78h25.7v10.94h-38.29v-50.61h38.29v10.94h-25.7z" fill="#34c3ed"/><path d="m735.41 144.21h-43.87v-6l25.1-33.57h-23.83v-11.04h42.19v6l-24.06 33.57h24.51v11.09z" fill="#34c3ed"/><path d="m752.32 113.77h22.5v10.72h-22.5v8.78h25.68v10.94h-38.27v-50.61h38.27v10.94h-25.7v9.23z" fill="#34c3ed"/></g><path d="m0 167h402v167h-402z" fill="#dd5c36"/><path d="m0 167h402v3.23h-402z" fill="#dd5c36"/><path d="m134 281.66h-12.65c-.67-3.8-3-6.85-8.35-6.85-4.47 0-7.38 1.94-7.38 5.21 0 2.91 2.09 4.17 6.11 5l7.08 1.64c9.32 2 15.28 5.81 15.28 14.53 0 10.13-8.35 16.46-21 16.46-11.41 0-21.69-5.51-22.89-18h12.67c.82 4.47 4.62 7.37 10.59 7.37 4.47 0 7.16-1.79 7.16-4.62 0-1.79-1-3.65-5.37-4.47l-8.35-1.79c-10-2.16-14.69-6.7-14.69-14.75 0-10.13 8.2-16.54 20.13-16.54 8.19-.02 20.41 3.15 21.66 16.81z" fill="#fff" transform="translate(-10.85 -29.3)"/><path d="m159.37 265.94c13.27 0 21.47 7.15 21.47 18.55 0 11.84-8.65 19.22-22.44 19.22h-6.86v12.89h-12.6v-50.66zm-.22 26.74c5.52 0 9.17-3.2 9.17-8.19 0-4.54-3.65-7.45-9.17-7.45h-7.6v15.64z" fill="#fff" transform="translate(-10.85 -29.3)"/><path d="m192.17 307.88-3.35 8.72h-13.42l21.55-51h12.05l21.47 51h-13.4l-3.43-8.72zm10.74-27.56-6.56 16.83h13.12z" fill="#fff" transform="translate(-10.85 -29.3)"/><path d="m256.06 301.92h-9.54v14.68h-12.6v-50.66h22.14c12.6 0 21 6.85 21 17.8a16.94 16.94 0 0 1 -8.57 15.12l11.93 17.73h-14.67zm-.22-11.32c4.85 0 8.65-2.68 8.65-6.85s-3.8-6.7-8.65-6.7h-9.32v13.55z" fill="#fff" transform="translate(-10.85 -29.3)"/><path d="m296.76 306.32v10.28h-12.6v-50.66h12.6v23l20.2-23h14.91l-19.31 22.2 20.95 28.45h-15.35l-14.16-18.59z" fill="#fff" transform="translate(-10.85 -29.3)"/><path d="m94.79 253.83c.29 1.84 1.62 2.56 3.61 2.56 1.73 0 2.92-.58 2.92-1.48 0-.65-.54-1.23-1.7-1.41l-3.72-.65c-2.64-.47-5.09-1.91-5.09-5.09 0-3.61 3-5.73 7.47-5.73 3 0 7.4 1 7.76 5.88h-4.58c-.11-1.55-1.55-2.16-3.18-2.16s-2.56.69-2.56 1.48.47 1.33 2.06 1.62l3.14.51c2.82.51 5.23 1.8 5.23 5.09 0 3.86-3.36 5.84-7.8 5.84-4 0-7.8-1.62-8.16-6.53z" fill="#fff" transform="translate(-10.85 -29.3)"/><path d="m126.59 251.16a9.24 9.24 0 0 1 -18.48 0c0-5.23 3.93-9 9.28-9a8.83 8.83 0 0 1 9.2 9zm-4.95 0a4.3 4.3 0 1 0 -8.59 0c0 2.6 1.7 4.69 4.33 4.69s4.27-2.09 4.27-4.69z" fill="#fff" transform="translate(-10.85 -29.3)"/><path d="m134.14 244.45a8.48 8.48 0 0 1 6.06-2.24v4.79a8.06 8.06 0 0 0 -6.06 2.49v10.32h-5v-17.3h5v1.95z" fill="#fff" transform="translate(-10.85 -29.3)"/><path d="m160 252.43h-12.76a4.17 4.17 0 0 0 4.48 3.61 3.17 3.17 0 0 0 2.92-1.3h5.23c-.94 3.32-4.19 5.59-8.27 5.59a8.93 8.93 0 0 1 -9.31-9.16 8.8 8.8 0 0 1 9.17-9.2c4.95 0 8.63 3.5 8.63 8.84a10.16 10.16 0 0 1 -.09 1.62zm-12.71-3h7.83a3.44 3.44 0 0 0 -3.61-3.35 4.05 4.05 0 0 0 -4.23 3.39z" fill="#fff" transform="translate(-10.85 -29.3)"/><path d="m181 250.3v9.49h-5v-9.05c0-2.74-1.37-4.22-3.72-4.22a5.17 5.17 0 0 0 -3.79 2.16v11.11h-5v-17.28h5v1.23a7.67 7.67 0 0 1 4.95-1.77c4.49.03 7.56 3.28 7.56 8.33z" fill="#fff" transform="translate(-10.85 -29.3)"/><path d="m187.71 253.83c.29 1.84 1.62 2.56 3.61 2.56 1.73 0 2.92-.58 2.92-1.48 0-.65-.54-1.23-1.7-1.41l-3.72-.65c-2.64-.47-5.09-1.91-5.09-5.09 0-3.61 3-5.73 7.47-5.73 3 0 7.4 1 7.76 5.88h-4.58c-.11-1.55-1.55-2.16-3.18-2.16s-2.56.69-2.56 1.48.47 1.33 2.06 1.62l3.14.51c2.82.51 5.23 1.8 5.23 5.09 0 3.86-3.36 5.84-7.8 5.84-4 0-7.8-1.62-8.16-6.53z" fill="#fff" transform="translate(-10.85 -29.3)"/><path d="m219.52 251.16a9.24 9.24 0 0 1 -18.48 0c0-5.23 3.93-9 9.28-9a8.83 8.83 0 0 1 9.2 9zm-4.95 0a4.3 4.3 0 1 0 -8.59 0c0 2.6 1.7 4.69 4.33 4.69s4.26-2.09 4.26-4.69z" fill="#fff" transform="translate(-10.85 -29.3)"/><path d="m239.48 250.3v9.49h-5v-9.05c0-2.74-1.37-4.22-3.72-4.22a5.17 5.17 0 0 0 -3.79 2.16v11.11h-5v-17.28h5v1.23a7.67 7.67 0 0 1 4.93-1.74c4.55 0 7.58 3.25 7.58 8.3z" fill="#fff" transform="translate(-10.85 -29.3)"/><path d="m402 167h402v167h-402z" fill="#34c3ed"/><path d="m402 167h402v3.23h-402z" fill="#34c3ed"/><path d="m454.28 248.49c.29 1.84 1.62 2.56 3.61 2.56 1.73 0 2.92-.58 2.92-1.48 0-.65-.54-1.23-1.7-1.41l-3.72-.65c-2.63-.47-5.09-1.91-5.09-5.08 0-3.6 3-5.73 7.47-5.73 3 0 7.39 1 7.75 5.87h-4.58c-.11-1.55-1.55-2.16-3.17-2.16s-2.56.68-2.56 1.48.47 1.33 2.06 1.62l3.14.5c2.81.5 5.23 1.8 5.23 5.08 0 3.86-3.35 5.84-7.79 5.84-4 0-7.79-1.62-8.15-6.52z" fill="#fff" transform="translate(-10.85 -29.3)"/><path d="m486.06 245.83a9.23 9.23 0 0 1 -18.47 0c0-5.23 3.93-9 9.27-9a8.82 8.82 0 0 1 9.2 9zm-4.94 0a4.3 4.3 0 1 0 -8.58 0c0 2.59 1.7 4.68 4.33 4.68s4.25-2.09 4.25-4.68z" fill="#fff" transform="translate(-10.85 -29.3)"/><path d="m493.6 239.13a8.47 8.47 0 0 1 6.06-2.23v4.76a8.06 8.06 0 0 0 -6.06 2.49v10.31h-5v-17.28h5z" fill="#fff" transform="translate(-10.85 -29.3)"/><path d="m519.43 247.09h-12.74a4.17 4.17 0 0 0 4.47 3.6 3.17 3.17 0 0 0 2.92-1.3h5.23c-.94 3.32-4.18 5.59-8.26 5.59a8.92 8.92 0 0 1 -9.31-9.15 8.79 8.79 0 0 1 9.16-9.19c4.94 0 8.62 3.5 8.62 8.83a10.15 10.15 0 0 1 -.09 1.62zm-12.7-3h7.83a3.44 3.44 0 0 0 -3.61-3.35 4 4 0 0 0 -4.22 3.39z" fill="#fff" transform="translate(-10.85 -29.3)"/><path d="m540.38 245v9.48h-5v-9c0-2.74-1.37-4.22-3.72-4.22a5.17 5.17 0 0 0 -3.79 2.16v11.1h-5v-17.34h5v1.23a7.67 7.67 0 0 1 4.94-1.77c4.54 0 7.57 3.28 7.57 8.36z" fill="#fff" transform="translate(-10.85 -29.3)"/><path d="m547.13 248.49c.29 1.84 1.62 2.56 3.61 2.56 1.73 0 2.92-.58 2.92-1.48 0-.65-.54-1.23-1.7-1.41l-3.72-.65c-2.63-.47-5.09-1.91-5.09-5.08 0-3.6 3-5.73 7.47-5.73 3 0 7.39 1 7.75 5.87h-4.58c-.11-1.55-1.55-2.16-3.17-2.16s-2.56.68-2.56 1.48.47 1.33 2.06 1.62l3.14.5c2.81.5 5.23 1.8 5.23 5.08 0 3.86-3.35 5.84-7.79 5.84-4 0-7.79-1.62-8.15-6.52z" fill="#fff" transform="translate(-10.85 -29.3)"/><path d="m578.91 245.83a9.23 9.23 0 0 1 -18.47 0c0-5.23 3.93-9 9.27-9a8.82 8.82 0 0 1 9.2 9zm-4.94 0a4.3 4.3 0 1 0 -8.58 0c0 2.59 1.7 4.68 4.33 4.68s4.28-2.09 4.28-4.68z" fill="#fff" transform="translate(-10.85 -29.3)"/><path d="m598.85 245v9.48h-5v-9c0-2.74-1.37-4.22-3.72-4.22a5.17 5.17 0 0 0 -3.79 2.16v11.1h-5v-17.34h5v1.23a7.67 7.67 0 0 1 4.94-1.77c4.54 0 7.57 3.28 7.57 8.36z" fill="#fff" transform="translate(-10.85 -29.3)"/><path d="m493.48 276.3h-12.66c-.67-3.8-3-6.85-8.34-6.85-4.47 0-7.37 1.94-7.37 5.21 0 2.9 2.09 4.17 6.11 5l7.08 1.64c9.31 2 15.27 5.81 15.27 14.51 0 10.12-8.34 16.45-21 16.45-11.4 0-21.68-5.51-22.87-18h12.66c.82 4.47 4.62 7.37 10.58 7.37 4.47 0 7.15-1.79 7.15-4.61 0-1.79-1-3.65-5.36-4.47l-8.34-1.79c-10-2.16-14.67-6.7-14.67-14.74 0-10.12 8.19-16.52 20.11-16.52 8.17-.02 20.39 3.18 21.65 16.8z" fill="#fff" transform="translate(-10.85 -29.3)"/><path d="m541.68 305.47 8 9.38-8.9 8.15-10-11.68a26.36 26.36 0 0 1 -7.37 1c-15.27 0-26.82-11.61-26.82-26.35s11.55-26.35 26.82-26.35 26.82 11.61 26.82 26.35a26.32 26.32 0 0 1 -8.55 19.5zm-18.25-4.91c8.19 0 14.08-6.7 14.08-14.66s-5.88-14.66-14.08-14.66-14.08 6.7-14.08 14.66 5.88 14.66 14.08 14.66z" fill="#fff" transform="translate(-10.85 -29.3)"/><path d="m601.12 287.61c0 15.7-9.09 24.71-23.61 24.71s-23.54-9-23.54-24.71v-27h12.66v27.24c0 7.74 4.25 12.73 10.88 12.73s10.95-5 10.95-12.73v-27.25h12.66v27z" fill="#fff" transform="translate(-10.85 -29.3)"/><path d="m619.14 280.77h22.5v10.72h-22.5v8.78h25.7v10.94h-38.29v-50.61h38.29v10.94h-25.7z" fill="#fff" transform="translate(-10.85 -29.3)"/><path d="m661.82 280.77h22.5v10.72h-22.5v8.78h25.7v10.94h-38.29v-50.61h38.29v10.94h-25.7z" fill="#fff" transform="translate(-10.85 -29.3)"/><path d="m735.41 311.21h-43.87v-6l25.1-33.57h-23.83v-11.04h42.19v6l-24.06 33.57h24.51v11.09z" fill="#fff" transform="translate(-10.85 -29.3)"/><path d="m752.32 280.77h22.5v10.72h-22.5v8.78h25.68v10.94h-38.27v-50.61h38.27v10.94h-25.7v9.23z" fill="#fff" transform="translate(-10.85 -29.3)"/></svg>