<svg viewBox="0 0 201.08 215.21" xmlns="http://www.w3.org/2000/svg"><path d="m125.4 64.28a16.82 16.82 0 1 0 23 6.15 16.85 16.85 0 0 0 -23-6.15z" fill="#322c6d"/><path d="m172.16 10.32a4.58 4.58 0 0 0 -3.22-2.94c-39.27-9.83-97.49-9.84-136.76 0a4.59 4.59 0 0 0 -3.23 3c-6.29 18.49-6.3 78.55 0 96.52a4.58 4.58 0 0 0 3.21 2.94 218.68 218.68 0 0 0 21.5 4.16v-10.7c0 4.57 4 8.76 10.71 12.05a350.9 350.9 0 0 0 74.38-.23h.07q3.86-.44 7.61-1l-4-6.91 11.57-6.7 6.47 11.19c2.89-.59 5.7-1.22 8.42-1.9a4.58 4.58 0 0 0 3.22-2.94c6.31-18 6.31-78.53.05-96.54zm-118.5 35.68c0-10.49 21.34-19 47.7-19s47.64 8.51 47.64 19v4.65a32.33 32.33 0 0 0 -5.61-2.36c.05-.08.13-.17.18-.25a4.15 4.15 0 0 0 .64-2c0-5.85-16.73-14.31-42.93-14.31s-42.88 8.47-42.88 14.27a4.15 4.15 0 0 0 .64 2h.05c3.32 5.6 19.09 12.24 42.28 12.24 2.21 0 4.34-.08 6.41-.19a32.23 32.23 0 0 0 -5.59 24h-.82c-1.29 0-2.56 0-3.83-.08v.08l-.3-.08c-22.81-.79-41-8-43.31-17.06a7 7 0 0 1 -.24-1.85zm47.71 66.78c-26.34 0-47.71-8.56-47.71-19.1v-19.02c0 10.54 21.37 19.06 47.71 19.06 1.35 0 2.68 0 4-.08.22.41.4.84.64 1.25a32.2 32.2 0 0 0 20.29 15.11 105.21 105.21 0 0 1 -24.93 2.82zm44.94-12.33a25 25 0 1 1 9.16-34.15 25 25 0 0 1 -9.16 34.2z" fill="#322c6d"/><g fill="#919fa2"><path d="m6.18 144.86c.39 2.48 2.19 3.45 4.86 3.45 2.33 0 3.94-.78 3.94-2 0-.88-.73-1.65-2.29-1.9l-5-.88c-3.56-.62-6.86-2.53-6.86-6.84 0-4.86 4.08-7.73 10.07-7.73 4 0 10 1.36 10.45 7.93h-6.18c-.17-2.05-2.09-2.89-4.28-2.89s-3.45.92-3.45 2c0 .88.63 1.8 2.77 2.19l4.23.68c3.79.68 7.05 2.43 7.05 6.86 0 5.2-4.52 7.88-10.5 7.88-5.4 0-10.5-2.19-11-8.8z"/><path d="m49 141.26a12 12 0 0 1 -12.4 12.35 12.08 12.08 0 0 1 -12.5-12.35c0-7.05 5.3-12.16 12.5-12.16s12.4 5.11 12.4 12.16zm-6.66 0c0-3.45-2.24-6.13-5.74-6.13s-5.84 2.67-5.84 6.13 2.29 6.32 5.84 6.32 5.75-2.82 5.75-6.32z"/><path d="m59.18 132.22a11.41 11.41 0 0 1 8.17-3v6.42c-3.65.15-6.22 1.22-8.17 3.36v13.91h-6.76v-23.32h6.76z"/><path d="m94 143h-17.17a5.62 5.62 0 0 0 6 4.86q2.85 0 3.94-1.75h7.05c-1.26 4.47-5.64 7.54-11.14 7.54-7.49 0-12.55-5.4-12.55-12.35 0-7.2 5-12.4 12.35-12.4 6.66 0 11.62 4.72 11.62 11.91a13.71 13.71 0 0 1 -.1 2.19zm-17.12-4h10.55c-.39-2.92-2.14-4.52-4.86-4.52a5.46 5.46 0 0 0 -5.69 4.52z"/><path d="m122.25 140.09v12.79h-6.76v-12.2c0-3.7-1.85-5.69-5-5.69a7 7 0 0 0 -5.11 2.92v15h-6.76v-23.32h6.76v1.65a10.33 10.33 0 0 1 6.66-2.38c6.13 0 10.21 4.42 10.21 11.23z"/><path d="m131.35 144.86c.39 2.48 2.19 3.45 4.86 3.45 2.33 0 3.94-.78 3.94-2 0-.88-.73-1.65-2.29-1.9l-5-.88c-3.55-.63-6.86-2.58-6.86-6.86 0-4.86 4.08-7.73 10.07-7.73 4 0 10 1.36 10.45 7.93h-6.18c-.15-2.09-2.09-2.92-4.28-2.92s-3.45.92-3.45 2c0 .88.63 1.8 2.77 2.19l4.23.68c3.79.68 7.05 2.43 7.05 6.86 0 5.2-4.52 7.88-10.5 7.88-5.4 0-10.5-2.19-11-8.8z"/><path d="m174.19 141.26a12.45 12.45 0 0 1 -24.9 0c0-7.05 5.3-12.16 12.5-12.16s12.4 5.11 12.4 12.16zm-6.66 0c0-3.45-2.24-6.13-5.74-6.13s-5.84 2.67-5.84 6.13 2.29 6.32 5.84 6.32 5.74-2.82 5.74-6.32z"/><path d="m201.08 140.09v12.79h-6.76v-12.2c0-3.7-1.85-5.69-5-5.69a7 7 0 0 0 -5.11 2.92v15h-6.76v-23.32h6.76v1.65a10.33 10.33 0 0 1 6.66-2.38c6.13 0 10.21 4.42 10.21 11.23z"/></g><path d="m45.59 165.29c15.71 0 26.94 10.2 26.94 24.81 0 14.83-11.23 25.11-26.94 25.11h-20v-49.92zm0 38.76c8.15 0 14.32-6 14.32-13.95 0-7.71-6.17-13.65-14.32-13.65h-7.59v27.55z" fill="#322c6d"/><path d="m131.7 215.21h-12.41v-25l-11.08 17.1v.07h-6.9v-.07l-11.16-17.31.07 25.18h-12.4v-49.89h9.25l17.69 26.65 17.69-26.65h9.25z" fill="#322c6d"/><path d="m158.79 165.29c13.07 0 21.14 7 21.14 18.28 0 11.67-8.52 18.94-22.1 18.94h-6.75v12.7h-12.4v-49.92zm-.22 26.35c5.43 0 9-3.16 9-8.08 0-4.48-3.6-7.34-9-7.34h-7.49v15.42z" fill="#322c6d"/></svg>