<svg viewBox="0 0 140.17 109.72" xmlns="http://www.w3.org/2000/svg"><g transform="translate(-417.6 -1029.03)"><path d="m499.91 1061.75a8.56 8.56 0 1 0 11.69 3.13 8.58 8.58 0 0 0 -11.69-3.13z" fill="#322c6d"/><path d="m523.72 1034.28a2.33 2.33 0 0 0 -1.64-1.5c-20-5-49.63-5-69.63 0a2.34 2.34 0 0 0 -1.64 1.52c-3.2 9.41-3.21 40 0 49.14a2.33 2.33 0 0 0 1.64 1.5 111.34 111.34 0 0 0 11 2.12v-5.45c0 2.33 2 4.46 5.45 6.14a178.66 178.66 0 0 0 37.87-.12q2-.22 3.87-.49l-2-3.52 5.89-3.4 3.29 5.7c1.47-.3 2.9-.62 4.29-1a2.33 2.33 0 0 0 1.64-1.5c3.16-9.15 3.16-39.97-.03-49.14zm-60.33 18.19c0-5.37 10.86-9.72 24.29-9.72s24.27 4.35 24.27 9.72v2.37a16.46 16.46 0 0 0 -2.85-1.2l.09-.13a2.12 2.12 0 0 0 .33-1c0-3-8.52-7.29-21.86-7.29s-21.86 4.31-21.86 7.29a2.11 2.11 0 0 0 .33 1c1.69 2.85 9.72 6.23 21.52 6.23 1.13 0 2.21 0 3.26-.1a16.41 16.41 0 0 0 -2.85 12.21h-.42c-.66 0-1.3 0-1.95 0h-.15c-11.62-.4-20.9-4.06-22-8.69a3.54 3.54 0 0 1 -.12-.94v-9.71zm24.29 34c-13.41 0-24.29-4.36-24.29-9.73v-9.74c0 5.37 10.88 9.7 24.29 9.7h2c.11.21.2.43.32.63a16.39 16.39 0 0 0 10.33 7.68 53.56 53.56 0 0 1 -12.65 1.46zm22.88-6.28a12.73 12.73 0 1 1 4.66-17.39 12.75 12.75 0 0 1 -4.66 17.39z" fill="#322c6d"/><g fill="#919fa2"><path d="m439.21 1102.78c.2 1.26 1.11 1.76 2.48 1.76 1.19 0 2-.4 2-1a1.12 1.12 0 0 0 -1.16-1l-2.55-.45c-1.81-.32-3.49-1.31-3.49-3.49 0-2.48 2.08-3.94 5.12-3.94 2 0 5.08.69 5.32 4h-3.14c-.07-1.06-1.06-1.49-2.18-1.49s-1.76.47-1.76 1 .32.92 1.41 1.11l2.15.35c1.93.35 3.59 1.24 3.59 3.49 0 2.65-2.3 4-5.35 4-2.75 0-5.35-1.11-5.6-4.48z"/><path d="m461 1100.95a6.34 6.34 0 1 1 -6.31-6.19 6.06 6.06 0 0 1 6.31 6.19zm-3.39 0a3 3 0 1 0 -5.89 0 3 3 0 1 0 5.91 0z"/><path d="m466.2 1096.34a5.81 5.81 0 0 1 4.16-1.53v3.27a5.53 5.53 0 0 0 -4.16 1.71v7.08h-3.44v-11.87h3.44z"/><path d="m483.93 1101.81h-8.74a2.86 2.86 0 0 0 3.07 2.48 2.17 2.17 0 0 0 2-.89h3.59a5.62 5.62 0 0 1 -5.67 3.84 6.13 6.13 0 0 1 -6.39-6.29 6 6 0 0 1 6.29-6.31 5.73 5.73 0 0 1 5.92 6.07 7 7 0 0 1 -.07 1.1zm-8.71-2h5.37a2.36 2.36 0 0 0 -2.48-2.3 2.78 2.78 0 0 0 -2.9 2.27z"/><path d="m498.31 1100.35v6.51h-3.44v-6.21c0-1.88-.94-2.9-2.55-2.9a3.55 3.55 0 0 0 -2.6 1.49v7.63h-3.44v-11.87h3.44v.84a5.26 5.26 0 0 1 3.39-1.21c3.12 0 5.2 2.26 5.2 5.72z"/><path d="m502.94 1102.78c.2 1.26 1.11 1.76 2.48 1.76 1.19 0 2-.4 2-1a1.12 1.12 0 0 0 -1.16-1l-2.55-.45c-1.81-.32-3.49-1.31-3.49-3.49 0-2.48 2.08-3.94 5.12-3.94 2 0 5.08.69 5.32 4h-3.14c-.07-1.06-1.06-1.49-2.18-1.49s-1.76.47-1.76 1 .32.92 1.41 1.11l2.15.35c1.93.35 3.59 1.24 3.59 3.49 0 2.65-2.3 4-5.35 4-2.75 0-5.35-1.11-5.6-4.48z"/><path d="m524.75 1100.95a6.34 6.34 0 1 1 -6.31-6.19 6.06 6.06 0 0 1 6.31 6.19zm-3.39 0a3 3 0 1 0 -5.89 0 3 3 0 1 0 5.89 0z"/><path d="m538.45 1100.35v6.51h-3.45v-6.21c0-1.88-.94-2.9-2.55-2.9a3.55 3.55 0 0 0 -2.6 1.49v7.63h-3.44v-11.87h3.44v.84a5.26 5.26 0 0 1 3.39-1.21c3.13 0 5.21 2.26 5.21 5.72z"/></g><path d="m432 1118.82v19.77h-6.28v-19.77h-8.12v-5.64h22.5v5.64z" fill="#322c6d"/><path d="m457.82 1138.75h-6.39l-11-25.56h7l7.25 17.23 7.25-17.23h7z" fill="#322c6d"/><path d="m489.37 1113.18c8 0 13.72 5.2 13.72 12.63s-5.72 12.78-13.72 12.78h-10.2v-25.42h10.2zm0 19.73a7 7 0 1 0 0-14.05h-3.89v14.05z" fill="#322c6d"/><path d="m533.21 1138.6h-6.32v-12.75l-5.64 8.71h-3.51l-5.68-8.78v12.82h-6.32v-25.42h4.71l9 13.57 9-13.57h4.71v25.42z" fill="#322c6d"/><path d="m547 1113.18c6.65 0 10.76 3.59 10.76 9.31 0 5.94-4.34 9.64-11.25 9.64h-3.44v6.47h-6.32v-25.42zm-.11 13.42c2.77 0 4.6-1.61 4.6-4.11 0-2.28-1.83-3.74-4.6-3.74h-3.81v7.85z" fill="#322c6d"/></g></svg>