<svg viewBox="0 0 512.07 216.24" xmlns="http://www.w3.org/2000/svg"><path d="m161.23 144.86c.39 2.48 2.19 3.45 4.86 3.45 2.33 0 3.94-.78 3.94-2 0-.88-.73-1.65-2.29-1.9l-5-.88c-3.55-.63-6.86-2.58-6.86-6.86 0-4.86 4.08-7.73 10.07-7.73 4 0 10 1.36 10.45 7.93h-6.18c-.15-2.09-2.09-2.92-4.28-2.92s-3.45.92-3.45 2c0 .88.63 1.8 2.77 2.19l4.23.68c3.79.68 7.05 2.43 7.05 6.86 0 5.2-4.52 7.88-10.5 7.88-5.4 0-10.5-2.19-11-8.8z" fill="#919fa2"/><path d="m204.07 141.26a12.45 12.45 0 0 1 -24.9 0c0-7.05 5.3-12.16 12.5-12.16s12.4 5.11 12.4 12.16zm-6.66 0c0-3.45-2.24-6.13-5.74-6.13s-5.84 2.67-5.84 6.13 2.29 6.32 5.84 6.32 5.74-2.81 5.74-6.32z" fill="#919fa2"/><path d="m214.24 132.22a11.41 11.41 0 0 1 8.17-3v6.42c-3.65.15-6.22 1.22-8.17 3.36v13.91h-6.76v-23.32h6.76z" fill="#919fa2"/><path d="m249.06 143h-17.17a5.62 5.62 0 0 0 6 4.86q2.85 0 3.94-1.75h7.05c-1.26 4.47-5.64 7.54-11.14 7.54-7.49 0-12.55-5.4-12.55-12.35 0-7.2 5-12.4 12.35-12.4 6.66 0 11.62 4.72 11.62 11.91a13.71 13.71 0 0 1 -.1 2.19zm-17.12-4h10.55c-.39-2.92-2.14-4.52-4.86-4.52a5.46 5.46 0 0 0 -5.69 4.52z" fill="#919fa2"/><path d="m277.31 140.1v12.79h-6.76v-12.21c0-3.7-1.85-5.69-5-5.69a7 7 0 0 0 -5.11 2.92v15h-6.76v-23.32h6.76v1.65a10.33 10.33 0 0 1 6.66-2.38c6.13 0 10.21 4.43 10.21 11.24z" fill="#919fa2"/><path d="m286.41 144.86c.39 2.48 2.19 3.45 4.86 3.45 2.33 0 3.94-.78 3.94-2 0-.88-.73-1.65-2.29-1.9l-5-.88c-3.55-.63-6.86-2.58-6.86-6.86 0-4.86 4.08-7.73 10.07-7.73 4 0 10 1.36 10.45 7.93h-6.18c-.15-2.09-2.09-2.92-4.28-2.92s-3.45.92-3.45 2c0 .88.63 1.8 2.77 2.19l4.23.68c3.79.68 7.05 2.43 7.05 6.86 0 5.2-4.52 7.88-10.5 7.88-5.4 0-10.5-2.19-11-8.8z" fill="#919fa2"/><path d="m329.25 141.26a12.45 12.45 0 0 1 -24.9 0c0-7.05 5.3-12.16 12.5-12.16s12.4 5.11 12.4 12.16zm-6.66 0c0-3.45-2.24-6.13-5.74-6.13s-5.84 2.67-5.84 6.13 2.29 6.32 5.84 6.32 5.73-2.81 5.73-6.32z" fill="#919fa2"/><path d="m356.14 140.1v12.79h-6.76v-12.21c0-3.7-1.85-5.69-5-5.69a7 7 0 0 0 -5.11 2.92v15h-6.76v-23.32h6.76v1.65a10.33 10.33 0 0 1 6.66-2.38c6.12 0 10.21 4.43 10.21 11.24z" fill="#919fa2"/><g fill="#322c6d"><path d="m16.52 206.62-3.3 8.59h-13.22l21.22-50.21h11.89l21.14 50.21h-13.25l-3.38-8.59zm10.57-27.16-6.46 16.59h12.92z"/><path d="m76.28 165.29c15.71 0 26.94 10.2 26.94 24.81 0 14.83-11.23 25.11-26.94 25.11h-20v-49.92zm0 38.76c8.15 0 14.32-6 14.32-13.95 0-7.71-6.17-13.65-14.32-13.65h-7.64v27.6z"/><path d="m135 185.19h22.17v10.57h-22.17v8.66h25.33v10.79h-37.73v-49.92h37.73v10.79h-25.33z"/><path d="m189 199.87-10.79 15.34h-14.27l16.66-24.59-16.44-25.33h14.9l9.84 15.42 9.84-15.42h14.9l-16.44 25.33 16.66 24.59h-14.17z"/><path d="m249.17 194.51h12.77c-1.62 12.92-11.45 21.73-25 21.73-15 0-26.43-10.94-26.43-26s11.38-26 26.43-26c13.58 0 23.42 8.81 25 21.73h-12.77c-1.32-6.24-5.73-10.13-12.33-10.13-8.15 0-13.8 6.09-13.8 14.39s5.65 14.39 13.8 14.39c6.61.02 11.01-3.87 12.33-10.11z"/><path d="m311.35 215.21h-12.35v-18.72h-20.31v18.72h-12.41v-49.92h12.41v20h20.31v-20h12.33z"/><path d="m329.86 206.62-3.3 8.59h-13.22l21.22-50.21h11.89l21.14 50.21h-13.21l-3.38-8.59zm10.57-27.16-6.43 16.59h12.92z"/><path d="m415.46 215.21h-9.54l-23.92-27.38v27.38h-12.42v-49.92h9.42l24.08 28.12v-28.12h12.33z"/><path d="m471 215.21h-9.25l-.51-6c-3.6 4.4-8.81 7-15.78 7-15.64 0-26.57-11.16-26.57-25.47 0-15.56 11.45-26.5 26.65-26.5 12.26 0 22.83 6.9 25 18.79h-13.16c-2.13-5.8-7.12-7.41-11.6-7.41-8.59 0-14.39 6-14.39 14.83 0 7.85 5.65 14.24 14.46 14.24a13.72 13.72 0 0 0 12.7-7.63l-14.32-.15v-9.76h26.77z"/><path d="m486.75 185.19h22.17v10.57h-22.17v8.66h25.33v10.79h-37.74v-49.92h37.73v10.79h-25.32z"/></g><path d="m327.21 10.32a4.58 4.58 0 0 0 -3.21-2.94c-39.27-9.83-97.49-9.84-136.76 0a4.59 4.59 0 0 0 -3.23 3c-6.29 18.49-6.3 78.55 0 96.52a4.58 4.58 0 0 0 3.21 2.94c39.28 9.84 97.52 9.84 136.8 0a4.58 4.58 0 0 0 3.22-2.94c6.24-18.04 6.24-78.57-.03-96.58zm-40.81 72.57a1.89 1.89 0 0 1 -1.87 1.87h-58.83v11.24a1.89 1.89 0 0 1 -1.87 1.87 2.19 2.19 0 0 1 -1.4-.58l-18.63-18.72a1.74 1.74 0 0 1 -.52-1.28 1.82 1.82 0 0 1 .52-1.34l18.69-18.69a1.83 1.83 0 0 1 1.34-.52 1.9 1.9 0 0 1 1.87 1.87v11.2h58.84a1.89 1.89 0 0 1 1.87 1.87zm21-41.64-18.69 18.69a1.82 1.82 0 0 1 -1.34.53 1.9 1.9 0 0 1 -1.87-1.87v-11.22h-58.84a1.89 1.89 0 0 1 -1.87-1.87v-11.21a1.9 1.9 0 0 1 1.87-1.87h58.84v-11.21a1.8 1.8 0 0 1 1.87-1.87 2.21 2.21 0 0 1 1.4.58l18.63 18.64a2 2 0 0 1 0 2.68z" fill="#302d6d"/></svg>