<svg viewBox="0 0 394.32 216.19" xmlns="http://www.w3.org/2000/svg"><g fill="#919fa2"><path d="m102.38 144.82c.39 2.48 2.19 3.45 4.86 3.45 2.33 0 3.94-.78 3.94-2 0-.88-.73-1.65-2.29-1.9l-5-.88c-3.55-.63-6.86-2.58-6.86-6.86 0-4.86 4.08-7.73 10.07-7.73 4 0 10 1.36 10.45 7.93h-6.18c-.15-2.09-2.09-2.92-4.28-2.92s-3.45.92-3.45 2c0 .88.63 1.8 2.77 2.19l4.23.68c3.79.68 7.05 2.43 7.05 6.86 0 5.2-4.52 7.88-10.5 7.88-5.4 0-10.5-2.19-11-8.8z"/><path d="m145.22 141.22a12.45 12.45 0 0 1 -24.9 0c0-7.05 5.3-12.16 12.5-12.16s12.4 5.11 12.4 12.16zm-6.66 0c0-3.45-2.24-6.13-5.74-6.13s-5.84 2.67-5.84 6.13 2.29 6.32 5.84 6.32 5.73-2.82 5.73-6.32z"/><path d="m155.38 132.18a11.41 11.41 0 0 1 8.17-3v6.42c-3.65.15-6.22 1.22-8.17 3.36v13.91h-6.76v-23.32h6.76z"/><path d="m190.2 142.92h-17.2a5.62 5.62 0 0 0 6 4.86q2.85 0 3.94-1.75h7.05c-1.26 4.47-5.64 7.54-11.14 7.54-7.49 0-12.55-5.4-12.55-12.35 0-7.2 5-12.4 12.35-12.4 6.66 0 11.62 4.72 11.62 11.91a13.71 13.71 0 0 1 -.07 2.19zm-17.12-4h10.55c-.39-2.92-2.14-4.52-4.86-4.52a5.46 5.46 0 0 0 -5.69 4.53z"/><path d="m218.45 140.05v12.79h-6.76v-12.2c0-3.7-1.85-5.69-5-5.69a7 7 0 0 0 -5.11 2.92v15h-6.76v-23.32h6.76v1.65a10.33 10.33 0 0 1 6.66-2.38c6.13 0 10.21 4.42 10.21 11.23z"/><path d="m227.55 144.82c.39 2.48 2.19 3.45 4.86 3.45 2.33 0 3.94-.78 3.94-2 0-.88-.73-1.65-2.29-1.9l-5-.88c-3.55-.63-6.86-2.58-6.86-6.86 0-4.86 4.08-7.73 10.07-7.73 4 0 10 1.36 10.45 7.93h-6.18c-.15-2.09-2.09-2.92-4.28-2.92s-3.45.92-3.45 2c0 .88.63 1.8 2.77 2.19l4.23.68c3.79.68 7.05 2.43 7.05 6.86 0 5.2-4.52 7.88-10.5 7.88-5.4 0-10.5-2.19-11-8.8z"/><path d="m270.39 141.22a12.45 12.45 0 0 1 -24.9 0c0-7.05 5.3-12.16 12.5-12.16s12.4 5.11 12.4 12.16zm-6.66 0c0-3.45-2.24-6.13-5.74-6.13s-5.84 2.67-5.84 6.13 2.29 6.32 5.84 6.32 5.74-2.82 5.74-6.32z"/><path d="m297.28 140.05v12.79h-6.76v-12.2c0-3.7-1.85-5.69-5-5.69a7 7 0 0 0 -5.11 2.92v15h-6.76v-23.32h6.76v1.65a10.33 10.33 0 0 1 6.66-2.38c6.13 0 10.21 4.42 10.21 11.23z"/></g><path d="m16.52 206.58-3.3 8.59h-13.22l21.22-50.17h11.89l21.14 50.21h-13.25l-3.38-8.59zm10.57-27.16-6.46 16.58h12.92z" fill="#322c6d"/><path d="m76.28 165.25c15.71 0 26.94 10.2 26.94 24.81 0 14.83-11.23 25.11-26.94 25.11h-20v-49.92zm0 38.76c8.15 0 14.32-6 14.32-13.95 0-7.71-6.17-13.65-14.32-13.65h-7.64v27.59z" fill="#322c6d"/><path d="m164.3 180.74h-12.48c-.66-3.74-2.94-6.75-8.22-6.75-4.4 0-7.27 1.91-7.27 5.14 0 2.86 2.06 4.11 6 4.92l7 1.62c9.18 2 15 5.73 15 14.31 0 10-8.22 16.22-20.7 16.22-11.23 0-21.36-5.43-22.54-17.77h12.48c.81 4.4 4.55 7.27 10.42 7.27 4.41 0 7-1.76 7-4.55 0-1.76-1-3.6-5.29-4.4l-8.12-1.75c-9.84-2.13-14.46-6.61-14.46-14.54 0-10 8.07-16.3 19.82-16.3 8.06-.01 20.11 3.14 21.36 16.58z" fill="#322c6d"/><path d="m181 185.14h22.17v10.57h-22.17v8.66h25.3v10.79h-37.74v-49.91h37.74v10.75h-25.3z" fill="#322c6d"/><path d="m231.85 200.7h-9.4v14.46h-12.45v-49.91h21.8c12.41 0 20.7 6.75 20.7 17.54a16.7 16.7 0 0 1 -8.44 14.9l11.75 17.47h-14.42zm-.22-11.16c4.77 0 8.52-2.64 8.52-6.75s-3.74-6.61-8.52-6.61h-9.18v13.36z" fill="#322c6d"/><path d="m284.12 215.46h-12.56l-21.66-50.21h13.65l14.24 33.84 14.21-33.84h13.7z" fill="#322c6d"/><path d="m319.43 185.14h22.17v10.57h-22.17v8.66h25.33v10.79h-37.76v-49.91h37.73v10.75h-25.3z" fill="#322c6d"/><path d="m370.31 200.7h-9.4v14.46h-12.4v-49.91h21.8c12.41 0 20.7 6.75 20.7 17.54a16.7 16.7 0 0 1 -8.44 14.9l11.75 17.47h-14.47zm-.22-11.16c4.77 0 8.52-2.64 8.52-6.75s-3.74-6.61-8.52-6.61h-9.18v13.36z" fill="#322c6d"/><circle cx="156.38" cy="43.65" fill="#302d6d" r="6.11"/><path d="m178.94 40.49a3.15 3.15 0 1 0 3.15 3.15 3.15 3.15 0 0 0 -3.15-3.15z" fill="#302d6d"/><path d="m169.23 40.49a3.15 3.15 0 1 0 3.15 3.15 3.16 3.16 0 0 0 -3.15-3.15z" fill="#302d6d"/><path d="m175.78 76.71a3.15 3.15 0 1 0 3.15-3.15 3.15 3.15 0 0 0 -3.15 3.15z" fill="#302d6d"/><circle cx="156.38" cy="76.71" fill="#302d6d" r="6.11"/><circle cx="169.23" cy="76.71" fill="#302d6d" r="3.15"/><path d="m268.36 10.32a4.58 4.58 0 0 0 -3.22-2.94c-39.27-9.83-97.49-9.84-136.76 0a4.59 4.59 0 0 0 -3.23 3c-6.29 18.49-6.3 78.55 0 96.52a4.58 4.58 0 0 0 3.21 2.94c5.91 1.48 12.25 2.73 18.89 3.77 0 0 0-.09 0-.14a4.07 4.07 0 0 1 4.07-4.08h29.79a15.06 15.06 0 0 0 -.58 4.08 14.78 14.78 0 0 0 .42 3.4q3 .13 6 .22a9.45 9.45 0 0 1 4.64-12.13v-15.74h-35.84a12.52 12.52 0 1 1 0-25h82a12.51 12.51 0 0 1 12.33 14.65h.18a12.51 12.51 0 0 1 -12.32 10.38h-38.17v15.69a9.45 9.45 0 0 1 4.62 12.18c2 0 4-.1 6-.17a14.82 14.82 0 0 0 .44-3.5 15.19 15.19 0 0 0 -.58-4.08h30.05a3.91 3.91 0 0 1 4 4.51c7.33-1.09 14.33-2.44 20.8-4.06a4.58 4.58 0 0 0 3.22-2.94c6.3-18.02 6.3-78.55.04-96.56zm-30.63 45.84h-82a12.52 12.52 0 0 1 0-25h82a12.52 12.52 0 1 1 0 25z" fill="#302d6d"/></svg>