<svg viewBox="0 0 121.64 109.72" xmlns="http://www.w3.org/2000/svg"><g transform="translate(-883.81 -805.14)"><g fill="#322c6d"><path d="m892.25 910.47-1.69 4.39h-6.75l10.84-25.64h6.07l10.8 25.64h-6.75l-1.77-4.39h-10.8zm5.4-13.87-3.3 8.47h6.6z"/><path d="m923.52 889.36c8 0 13.76 5.21 13.76 12.67s-5.74 12.82-13.76 12.82h-10.24v-25.5h10.24zm0 19.8a7.05 7.05 0 1 0 0-14.1h-3.9v14.1z"/><path d="m955.32 910.47-1.69 4.39h-6.75l10.84-25.64h6.07l10.8 25.64h-6.75l-1.72-4.39zm5.4-13.87-3.3 8.47h6.58z"/><path d="m986.62 889.36c6.67 0 10.8 3.6 10.8 9.34 0 6-4.35 9.67-11.29 9.67h-3.45v6.49h-6.34v-25.5h10.27zm-.11 13.46c2.77 0 4.61-1.61 4.61-4.12 0-2.29-1.84-3.75-4.61-3.75h-3.82v7.87z"/><path d="m1005.45 914.86h-6.34v-25.5h6.34z"/><path d="m916.5 855h56.25v-27.24h-56.25zm33.37-20.78a.6.6 0 0 1 .82 0l7 7a.58.58 0 0 1 0 .82l-7 7a.58.58 0 0 1 -.82 0l-1.52-1.52a.58.58 0 0 1 0-.82l5.08-5.08-5.08-5.08a.58.58 0 0 1 0-.82zm-4-2.61a.58.58 0 0 1 .72-.39l1.23.36a.58.58 0 0 1 .39.72l-5.72 19.37a.58.58 0 0 1 -.56.42h-.16l-1.23-.36a.59.59 0 0 1 -.35-.28.58.58 0 0 1 0-.44zm-15.25 9.62 7-7a.58.58 0 0 1 .82 0l1.52 1.52a.58.58 0 0 1 0 .82l-5.08 5.08 5.08 5.08a.58.58 0 0 1 0 .82l-1.52 1.52a.58.58 0 0 1 -.82 0l-7-7a.58.58 0 0 1 -.04-.79z"/><path d="m971.58 857.56h-2.51a.63.63 0 0 0 0 1.26h2.51a.63.63 0 0 0 0-1.26z"/><path d="m981.21 810.41a2.34 2.34 0 0 0 -1.64-1.5c-20.05-5-49.79-5-69.85 0a2.34 2.34 0 0 0 -1.65 1.52c-3.21 9.44-3.22 40.12 0 49.29a2.34 2.34 0 0 0 1.64 1.5 132.74 132.74 0 0 0 23 3.38v-2h1 .61 21.32.85v2a132.73 132.73 0 0 0 23-3.38 2.34 2.34 0 0 0 1.64-1.5c3.28-9.2 3.28-40.11.08-49.31zm-5.87 50.12a.79.79 0 0 1 -.79.79h-59.84a.79.79 0 0 1 -.79-.79v-34.78a.79.79 0 0 1 .79-.79h59.84a.79.79 0 0 1 .79.79v34.77z"/></g><path d="m896.43 878.93c.2 1.27 1.12 1.76 2.48 1.76 1.19 0 2-.4 2-1a1.13 1.13 0 0 0 -1.17-1l-2.56-.45c-1.81-.32-3.5-1.32-3.5-3.5 0-2.48 2.09-3.95 5.14-3.95 2 0 5.09.7 5.34 4h-3.15c-.07-1.07-1.07-1.49-2.19-1.49s-1.76.47-1.76 1 .32.92 1.42 1.12l2.16.35c1.94.35 3.6 1.24 3.6 3.5 0 2.66-2.31 4-5.36 4-2.76 0-5.36-1.12-5.61-4.5z" fill="#919fa2"/><path d="m918.31 877.09a6.36 6.36 0 1 1 -6.33-6.21 6.07 6.07 0 0 1 6.33 6.21zm-3.4 0a3 3 0 1 0 -5.91 0 3 3 0 1 0 5.91 0z" fill="#919fa2"/><path d="m923.51 872.47a5.83 5.83 0 0 1 4.17-1.54v3.28a5.55 5.55 0 0 0 -4.17 1.71v7.08h-3.45v-11.9h3.45v1.34z" fill="#919fa2"/><path d="m941.29 878h-8.77a2.87 2.87 0 0 0 3.08 2.48 2.18 2.18 0 0 0 2-.89h3.6a5.63 5.63 0 0 1 -5.69 3.85 6.14 6.14 0 0 1 -6.41-6.31 6.06 6.06 0 0 1 6.31-6.33 5.75 5.75 0 0 1 5.94 6.08 7 7 0 0 1 -.06 1.12zm-8.74-2h5.39a2.37 2.37 0 0 0 -2.48-2.31 2.79 2.79 0 0 0 -2.91 2.24z" fill="#919fa2"/><path d="m955.72 876.5v6.5h-3.45v-6.23c0-1.89-.94-2.91-2.56-2.91a3.56 3.56 0 0 0 -2.61 1.49v7.65h-3.45v-11.9h3.45v.9a5.28 5.28 0 0 1 3.4-1.22c3.13-.02 5.22 2.22 5.22 5.72z" fill="#919fa2"/><path d="m960.36 878.93c.2 1.27 1.12 1.76 2.48 1.76 1.19 0 2-.4 2-1a1.13 1.13 0 0 0 -1.17-1l-2.56-.45c-1.81-.32-3.5-1.32-3.5-3.5 0-2.48 2.09-3.95 5.14-3.95 2 0 5.09.7 5.34 4h-3.15c-.07-1.07-1.07-1.49-2.19-1.49s-1.76.47-1.76 1 .32.92 1.42 1.12l2.16.35c1.94.35 3.6 1.24 3.6 3.5 0 2.66-2.31 4-5.36 4-2.76 0-5.36-1.12-5.61-4.5z" fill="#919fa2"/><path d="m982.24 877.09a6.36 6.36 0 1 1 -6.33-6.21 6.07 6.07 0 0 1 6.33 6.21zm-3.4 0a3 3 0 1 0 -5.91 0 3 3 0 1 0 5.91 0z" fill="#919fa2"/><path d="m996 876.5v6.5h-3.45v-6.23c0-1.89-.94-2.91-2.56-2.91a3.56 3.56 0 0 0 -2.61 1.49v7.65h-3.45v-11.9h3.45v.9a5.28 5.28 0 0 1 3.4-1.22c3.11-.02 5.22 2.22 5.22 5.72z" fill="#919fa2"/></g></svg>