<svg enable-background="new 0 0 189 35" viewBox="0 0 189 35" xmlns="http://www.w3.org/2000/svg"><path d="m2.1 1c-.6 0-1.1.5-1.1 1.1v30.7c0 .7.5 1.2 1.1 1.2h184.7c.6 0 1.1-.5 1.1-1.1v-30.8c0-.6-.5-1.1-1.1-1.1zm184.8 34h-184.8c-1.1 0-2.1-1-2.1-2.1v-30.8c0-1.1 1-2.1 2.1-2.1h184.7c1.2 0 2.1 1 2.1 2.1v30.7c.1 1.2-.8 2.2-2 2.2"/><path d="m69.6 19.2c.2.9.8 1.3 1.9 1.3 1 0 1.6-.4 1.6-1 0-.5-.4-.8-1-.9l-1.5-.3c-1.1-.2-2-.7-2-1.9 0-1.3 1.1-2.1 2.8-2.1 1.3 0 2.8.5 3 2.2h-1.2c-.1-.8-.8-1.2-1.7-1.2s-1.5.4-1.5.9c0 .4.3.8 1.1.9l1.3.2c1 .2 2 .6 2 1.9 0 1.4-1.2 2.2-2.9 2.2s-3-.7-3.2-2.4z"/><path d="m80.3 21.4c-.7.2-1.1.3-1.6.3-1.6 0-2.5-1-2.5-2.8v-3.1h-1.7v-1.1h1.7v-2.5h1.3v2.5h2.5v1.1h-2.5v3.1c0 1.1.5 1.5 1.4 1.5.4 0 .8-.1 1.1-.2z"/><path d="m86.2 19.3v-2.6c-.5-.8-1.3-1.1-2.1-1.1-1.3 0-2.3 1.1-2.3 2.4s1 2.4 2.3 2.4c.8 0 1.5-.3 2.1-1.1m1.3-4.7v6.8h-1.3v-.6c-.6.5-1.4.8-2.3.8-1.9 0-3.5-1.6-3.5-3.6s1.5-3.6 3.5-3.6c.9 0 1.7.3 2.3.8v-.6z"/><path d="m94 21.4c-.7.2-1.1.3-1.6.3-1.6 0-2.5-1-2.5-2.8v-3.1h-1.7v-1.1h1.7v-2.5h1.3v2.5h2.5v1.1h-2.5v3.1c0 1.1.5 1.5 1.4 1.5.4 0 .8-.1 1.1-.2z"/><path d="m96.5 21.4h-1.3v-6.8h1.3zm-1.6-9.3c0-.5.4-.8.9-.8s.9.4.9.8c0 .5-.4.8-.9.8s-.9-.3-.9-.8"/><path d="m103.5 18c0-1.3-.9-2.4-2.3-2.4-1.3 0-2.3 1-2.3 2.4 0 1.3.9 2.4 2.3 2.4s2.3-1 2.3-2.4m1.4 0c0 2.1-1.6 3.6-3.6 3.6-2.1 0-3.6-1.6-3.6-3.6 0-2.1 1.6-3.6 3.6-3.6 2 .1 3.6 1.6 3.6 3.6"/><path d="m112.5 17.6v3.8h-1.3v-3.8c0-1.3-.7-2-1.9-2-.7 0-1.5.4-2 1.1v4.7h-1.3v-6.8h1.3v.7c.6-.6 1.4-.9 2.3-.9 1.7 0 2.9 1.3 2.9 3.2"/><path d="m122.3 19.3v-2.6c-.5-.8-1.3-1.1-2.1-1.1-1.3 0-2.3 1.1-2.3 2.4s1 2.4 2.3 2.4c.8 0 1.6-.3 2.1-1.1m1.3-4.7v6.8h-1.3v-.6c-.6.5-1.4.8-2.3.8-1.9 0-3.5-1.6-3.5-3.6s1.5-3.6 3.5-3.6c.9 0 1.7.3 2.3.8v-.6z"/><path d="m131.7 17.6v3.8h-1.3v-3.8c0-1.3-.7-2-1.9-2-.7 0-1.5.4-2 1.1v4.7h-1.3v-6.8h1.3v.7c.6-.6 1.4-.9 2.3-.9 1.7 0 2.9 1.3 2.9 3.2"/><path d="m138.3 19.3v-2.6c-.5-.8-1.3-1.1-2.1-1.1-1.3 0-2.3 1.1-2.3 2.4s1 2.4 2.3 2.4c.8 0 1.6-.3 2.1-1.1m1.3-4.7v6.8h-1.3v-.6c-.6.5-1.4.8-2.3.8-1.9 0-3.5-1.6-3.5-3.6s1.5-3.6 3.5-3.6c.9 0 1.7.3 2.3.8v-.6z"/><path d="m141 11.1h1.3v10.3h-1.3z"/><path d="m146.3 25h-1.4l1.5-3.3-3.5-7.1h1.5l2.6 5.6 2.5-5.6h1.4z"/><path d="m157.3 21.4c-.7.2-1.1.3-1.6.3-1.6 0-2.5-1-2.5-2.8v-3.1h-1.7v-1.1h1.7v-2.5h1.3v2.5h2.5v1.1h-2.5v3.1c0 1.1.5 1.5 1.4 1.5.4 0 .8-.1 1.1-.2z"/><path d="m159.7 21.4h-1.3v-6.8h1.3zm-1.6-9.3c0-.5.4-.8.9-.8s.9.4.9.8c0 .5-.4.8-.9.8s-.9-.3-.9-.8"/><path d="m166.4 19h1.4c-.2 1.5-1.6 2.6-3.3 2.6-2.1 0-3.6-1.6-3.6-3.6s1.5-3.6 3.6-3.6c1.7 0 3 1 3.3 2.6h-1.4c-.2-.8-.9-1.4-1.9-1.4-1.4 0-2.2 1-2.2 2.4 0 1.3.9 2.3 2.2 2.3.9.1 1.7-.5 1.9-1.3"/><path d="m169.5 19.2c.2.9.8 1.3 1.9 1.3 1 0 1.6-.4 1.6-1 0-.5-.4-.8-1-.9l-1.5-.3c-1.1-.2-2-.7-2-1.9 0-1.3 1.1-2.1 2.8-2.1 1.3 0 2.8.5 3 2.2h-1.2c-.1-.8-.8-1.2-1.7-1.2s-1.5.4-1.5.9c0 .4.3.8 1.1.9l1.3.2c1 .2 2 .6 2 1.9 0 1.4-1.2 2.2-2.9 2.2s-3-.7-3.2-2.4z"/><path d="m23.2 14.6h-2.5c-.1-.7-.6-1.3-1.6-1.3-.9 0-1.4.4-1.4 1s.4.8 1.2 1l1.4.3c1.8.4 3 1.1 3 2.8 0 2-1.6 3.2-4.1 3.2-2.2 0-4.2-1.1-4.5-3.5h2.5c.2.9.9 1.4 2.1 1.4.9 0 1.4-.4 1.4-.9 0-.3-.2-.7-1-.9l-1.6-.3c-2.2-.4-3.1-1.3-3.1-2.9 0-2 1.6-3.2 3.9-3.2 1.6 0 4 .6 4.3 3.3"/><path d="m28.1 16.8c1.1 0 1.8-.6 1.8-1.6 0-.9-.7-1.5-1.8-1.5h-1.5v3.1zm0-5.3c2.6 0 4.2 1.4 4.2 3.6 0 2.3-1.7 3.8-4.4 3.8h-1.3v2.5h-2.5v-9.9z"/><path d="m36.6 14.3-1.3 3.3h2.6zm-2.1 5.4-.7 1.7h-2.6l4.2-10h2.4l4.2 10h-2.6l-.7-1.7z"/><path d="m47 16.4c.9 0 1.7-.5 1.7-1.3s-.7-1.3-1.7-1.3h-1.8v2.6zm0 2.2h-1.9v2.9h-2.5v-9.9h4.4c2.5 0 4.1 1.3 4.1 3.5 0 1.3-.6 2.3-1.7 3l2.3 3.5h-2.9z"/><path d="m54.9 19.4v2h-2.4v-9.9h2.4v4.5l4-4.5h2.9l-3.8 4.4 4.1 5.5h-3l-2.7-3.6z"/><path d="m64.7 7.5h1.2v20h-1.2z"/></svg>